<svg xmlns="http://www.w3.org/2000/svg" viewBox="0 0 1024 1024">
  <defs>
    <linearGradient id="bg" x1="140" y1="90" x2="870" y2="940" gradientUnits="userSpaceOnUse">
      <stop stop-color="#102a3b"/>
      <stop offset="1" stop-color="#050d17"/>
    </linearGradient>
    <linearGradient id="page" x1="310" y1="304" x2="720" y2="742" gradientUnits="userSpaceOnUse">
      <stop stop-color="#f4fbff"/>
      <stop offset="1" stop-color="#9ddedb"/>
    </linearGradient>
    <filter id="shadow" x="-20%" y="-20%" width="140%" height="140%">
      <feDropShadow dx="0" dy="22" stdDeviation="24" flood-color="#000915" flood-opacity=".62"/>
    </filter>
  </defs>
  <rect width="1024" height="1024" rx="224" fill="url(#bg)"/>
  <circle cx="512" cy="512" r="325" fill="none" stroke="#55d6ce" stroke-width="22" opacity=".96"/>
  <circle cx="512" cy="512" r="272" fill="none" stroke="#1d7580" stroke-width="5" stroke-dasharray="11 25"/>
  <path d="M201 531c56-102 159-214 311-316 152 102 255 214 311 316-56 103-159 215-311 316-152-101-255-213-311-316Z" fill="none" stroke="#328f96" stroke-width="8" opacity=".55"/>
  <g filter="url(#shadow)">
    <path d="M298 352c80-31 151-14 214 48v346c-63-62-134-78-214-48V352Z" fill="url(#page)"/>
    <path d="M726 352c-80-31-151-14-214 48v346c63-62 134-78 214-48V352Z" fill="#d9f7f4"/>
    <path d="M512 400v346" stroke="#248b91" stroke-width="17"/>
    <path d="M340 432c49-11 91 2 132 33M340 500c49-11 91 2 132 33M340 568c49-11 91 2 132 33" fill="none" stroke="#438a91" stroke-linecap="round" stroke-width="13" opacity=".7"/>
    <path d="M684 432c-49-11-91 2-132 33M684 500c-49-11-91 2-132 33M684 568c-49-11-91 2-132 33" fill="none" stroke="#438a91" stroke-linecap="round" stroke-width="13" opacity=".7"/>
  </g>
  <circle cx="512" cy="151" r="25" fill="#e7b95c"/>
  <circle cx="828" cy="574" r="16" fill="#e7b95c"/>
  <circle cx="227" cy="677" r="13" fill="#d4f7f4"/>
</svg>
